PathFileType	4	(X/Y/Z)	Walk10.trc
DataRate	CameraRate	NumFrames	NumMarkers	Units	OrigDataRate	OrigDataStartFrame	OrigNumFrames
200.000000	200.000000	4	57	mm	200.000000	828	868
Frame#	Times		RCAR		LMT5		RFHD		LTB3		RUA1		LTB2		RASI		LTB4		RElbow		RFA1		LACR1		LLFC		LUA1		LTH1		STRN		RACR1		RTH4		LToe		RTH3		RWRU		LCAR		RBHD		LASI		LTH3		LFHD		RLFC		CLAV		RBack		RTH2		C7		LTH4		LTH2		LElbow		RTB3		RTH1		LWRR		RTB4		RMT1		LFA1		LPSI		RLMAL		LWRU		LTB1		RPSI		RTB1		RTB2		LElbowM		RWRR		LBHD		LMT1		T10		RCAL		RMMAL		LMMAL		LLMAL		LCAL		RElbowM
			X1	Y1	Z1	X2	Y2	Z2	X3	Y3	Z3	X4	Y4	Z4	X5	Y5	Z5	X6	Y6	Z6	X7	Y7	Z7	X8	Y8	Z8	X9	Y9	Z9	X10	Y10	Z10	X11	Y11	Z11	X12	Y12	Z12	X13	Y13	Z13	X14	Y14	Z14	X15	Y15	Z15	X16	Y16	Z16	X17	Y17	Z17	X18	Y18	Z18	X19	Y19	Z19	X20	Y20	Z20	X21	Y21	Z21	X22	Y22	Z22	X23	Y23	Z23	X24	Y24	Z24	X25	Y25	Z25	X26	Y26	Z26	X27	Y27	Z27	X28	Y28	Z28	X29	Y29	Z29	X30	Y30	Z30	X31	Y31	Z31	X32	Y32	Z32	X33	Y33	Z33	X34	Y34	Z34	X35	Y35	Z35	X36	Y36	Z36	X37	Y37	Z37	X38	Y38	Z38	X39	Y39	Z39	X40	Y40	Z40	X41	Y41	Z41	X42	Y42	Z42	X43	Y43	Z43	X44	Y44	Z44	X45	Y45	Z45	X46	Y46	Z46	X47	Y47	Z47	X48	Y48	Z48	X49	Y49	Z49	X50	Y50	Z50	X51	Y51	Z51	X52	Y52	Z52	X53	Y53	Z53	X54	Y54	Z54	X55	Y55	Z55	X56	Y56	Z56	X57	Y57	Z57

828	4.14	1100.6	778.63	305.37	1159.1	25.525	-51.374	1248.4	1604	25.946	1130	164.55	-30.667	1096	1200.5	253.07	1116.7	254.74	-74.511	1222.5	979.45	165.93	1138.3	254.15	-17.081	1037.6	1085.4	278.86	1030	939.13	299.05	1134.3	1382.4	-151.58	1118.7	481.08	-103.35	1138.9	1204.3	-248.08	1140.8	760.19	-203.54	1249.9	1239.4	14.984	1125.5	1380.8	157.25	1202.6	664.35	215.89	1258.1	27.295	2.3076	1237.4	587.75	201.61	1041.9	829.85	304.49	1278.4	820.95	-277.27	1100.1	1559	72.305	1246	966.38	-125.23	1126.9	602.23	-139.57	1232.6	1598.1	-66.929	1268.1	511.82	182.54	1193.8	1343.9	2.7179	999.48	1331.1	107.7	1256.9	690.08	217.79	1057.3	1425.9	5.6689	1133.2	682.71	-166.85	1189.1	685.62	-153.44	1115.6	1079.4	-282.55	1175.6	208.32	111.89	1168.9	743.5	233.55	1248.7	861.23	-237.27	1225.4	278.37	115.36	1180.6	54.051	85.47	1155.5	945.36	-293.37	990.5	975.58	-41.706	1080.3	129.27	125.87	1207.5	839.79	-294.33	1153.7	339.16	-20.751	986.03	974.74	48.002	1275.2	349.51	124.16	1195.9	295.51	168.23	1076.5	1045.7	-215.14	1096.2	833.25	257.52	1081.8	1542.9	-67.686	1190.6	31.207	29.649	981.15	1160.1	-3.7076	1015.2	119.91	77.65	1133.2	115.64	52.041	1087.3	70.333	48.341	1077.8	59.348	-35.274	1011.5	33.473	-1.9986	1022.7	1056.9	186.14
829	4.145	1104.4	778.51	305.75	1159.2	25.484	-51.401	1254.5	1603.6	26.132	1130.3	164.55	-30.134	1101	1200.2	252.95	1117.5	254.65	-74.509	1228.8	979.16	165.18	1139	253.98	-17.084	1042.2	1085.2	278.54	1033.9	939.01	298.6	1140.4	1382.3	-151.52	1120.4	481.02	-103.42	1145.6	1204.5	-248.44	1144.8	759.93	-203.6	1255.5	1239.1	15.262	1131.1	1380.5	157.27	1210.1	664.84	215.77	1258.2	27.264	2.1995	1245.6	588.58	201.03	1045.6	829.56	303.91	1289.8	823.49	-276.7	1106.1	1558.6	72.509	1250.8	966	-126.03	1129.3	602.19	-139.46	1238.6	1597.8	-66.743	1276.6	512.86	181.62	1199.5	1343.6	2.7461	1005	1330.9	107.38	1264.2	690.98	217.86	1063.1	1425.7	5.5815	1136.5	682.56	-166.79	1192.3	684.94	-153.4	1123.4	1079.5	-283.18	1192.2	206	111.23	1175.6	743.59	233.73	1259.3	863.31	-236.82	1239.7	277.69	114.68	1202.2	52.479	85.587	1165.1	945.94	-293.55	995.71	975.32	-40.913	1099.4	124.18	125.52	1218.6	841.04	-293.82	1154.8	338.93	-20.77	991.58	974.46	48.849	1287.2	350.37	123.31	1209.7	293.96	167.59	1084.2	1045.4	-216.03	1100.4	832.98	257.68	1087.7	1542.8	-67.481	1190.9	31.029	29.716	986.82	1160	-3.8621	1034.5	112.43	77.272	1154.8	110.01	52.009	1087.4	70.4	48.442	1077.9	59.394	-35.215	1011.4	33.701	-1.9444	1027.3	1056.8	185.81
830	4.15	1108.1	778.34	306.17	1159.2	25.448	-51.429	1260.5	1603.1	26.33	1130.5	164.62	-29.316	1106	1199.8	252.83	1118.3	254.56	-74.503	1235.1	978.78	164.45	1139.9	253.8	-17.089	1046.7	1085	278.21	1037.8	938.83	298.12	1146.4	1382.2	-151.45	1122.2	480.95	-103.49	1152.4	1204.7	-248.79	1148.7	759.65	-203.67	1261.1	1238.7	15.497	1136.7	1380.2	157.29	1217.5	665.26	215.62	1258.3	27.207	2.0942	1253.6	589.32	200.4	1049.2	829.22	303.32	1301	825.96	-276.11	1112.1	1558.2	72.716	1255.6	965.55	-126.8	1131.9	602.12	-139.35	1244.6	1597.5	-66.548	1284.8	513.77	180.66	1205.2	1343.2	2.7632	1010.6	1330.7	107.07	1271.5	691.76	217.85	1069	1425.5	5.5028	1139.8	682.39	-166.74	1195.6	684.25	-153.37	1131.2	1079.6	-283.81	1208.8	203.73	110.58	1182.4	743.66	233.93	1269.9	865.36	-236.35	1254	277.02	114	1223.9	51.079	85.751	1174.7	946.49	-293.71	1000.9	975.01	-40.084	1118.7	119.15	125.2	1229.6	842.25	-293.31	1156	338.68	-20.796	997.15	974.12	49.731	1299	351.2	122.43	1223.5	292.4	166.93	1092	1045.1	-216.91	1104.6	832.66	257.86	1093.5	1542.6	-67.276	1191.2	30.863	29.773	992.48	1159.8	-3.9811	1054.3	105.02	76.916	1176.4	104.64	51.927	1087.6	70.396	48.476	1078	59.45	-35.16	1011.4	33.94	-1.8777	1031.9	1056.8	185.46
831	4.155	1111.9	778.13	306.63	1159.2	25.418	-51.459	1266.5	1602.6	26.538	1130.6	164.75	-28.265	1111.1	1199.4	252.7	1119.2	254.46	-74.494	1241.3	978.33	163.73	1140.7	253.6	-17.097	1051.2	1084.8	277.88	1041.8	938.61	297.62	1152.3	1382	-151.38	1124.2	480.86	-103.55	1159.1	1204.8	-249.11	1152.7	759.33	-203.75	1266.7	1238.3	15.685	1142.3	1379.8	157.31	1224.8	665.62	215.44	1258.5	27.126	1.992	1261.4	589.96	199.73	1052.8	828.84	302.71	1312.2	828.38	-275.5	1118.1	1557.8	72.926	1260.4	965.04	-127.53	1134.5	602.04	-139.25	1250.5	1597.1	-66.344	1292.8	514.52	179.67	1210.9	1342.8	2.7702	1016.2	1330.4	106.78	1278.7	692.42	217.78	1074.8	1425.2	5.4338	1143.1	682.2	-166.7	1199	683.56	-153.32	1139.1	1079.7	-284.43	1225.5	201.54	109.96	1189.2	743.69	234.13	1280.4	867.36	-235.87	1268.3	276.35	113.29	1245.7	49.874	85.96	1184.3	947	-293.86	1006.1	974.66	-39.223	1138.2	114.22	124.9	1240.5	843.44	-292.77	1157.3	338.41	-20.83	1002.7	973.74	50.642	1310.7	352.01	121.52	1237.2	290.84	166.26	1099.8	1044.7	-217.76	1108.8	832.3	258.06	1099.4	1542.4	-67.075	1191.5	30.721	29.812	998.14	1159.5	-4.0644	1074.3	97.727	76.581	1197.8	99.604	51.784	1087.8	70.324	48.449	1078.1	59.517	-35.106	1011.3	34.189	-1.7967	1036.6	1056.7	185.1
